HIERARCHY
ROOT hip
{
  OFFSET 0 0 0
  CHANNELS 6 Xposition Yposition Zposition Zrotation Yrotation Xrotation
  JOINT abdomen
  {
    OFFSET 0 20.6881 -0.73152
    CHANNELS 3 Zrotation Xrotation Yrotation
    JOINT chest
    {
      OFFSET 0 11.7043 -0.48768
      CHANNELS 3 Zrotation Xrotation Yrotation
      JOINT neck
      {
        OFFSET 0 22.1894 -2.19456
        CHANNELS 3 Zrotation Xrotation Yrotation
        JOINT head
        {
          OFFSET -0.24384 7.07133 1.2192
          CHANNELS 3 Zrotation Xrotation Yrotation
          JOINT leftEye
          {
            OFFSET 4.14528 8.04674 8.04672
            CHANNELS 3 Zrotation Xrotation Yrotation
            End Site
            {
              OFFSET 1 0 0
            }
          }
          JOINT rightEye
          {
            OFFSET -3.6576 8.04674 8.04672
            CHANNELS 3 Zrotation Xrotation Yrotation
            End Site
            {
              OFFSET 1 0 0
            }
          }
        }
      }
      JOINT rCollar
      {
        OFFSET -2.68224 19.2634 -4.8768
        CHANNELS 3 Zrotation Xrotation Yrotation
        JOINT rShldr
        {
          OFFSET -8.77824 -1.95073 1.46304
          CHANNELS 3 Zrotation Xrotation Yrotation
          JOINT rForeArm
          {
            OFFSET -28.1742 -1.7115 0.48768
            CHANNELS 3 Zrotation Xrotation Yrotation
            JOINT rHand
            {
              OFFSET -22.5879 0.773209 7.07136
              CHANNELS 3 Zrotation Xrotation Yrotation
              JOINT rThumb1
              {
                OFFSET -1.2192 -0.487915 3.41376
                CHANNELS 3 Zrotation Xrotation Yrotation
                JOINT rThumb2
                {
                  OFFSET -3.37035 -0.52449 3.41376
                  CHANNELS 3 Zrotation Xrotation Yrotation
                  End Site
                  {
                    OFFSET -1.78271 -1.18214 1.43049
                  }
                }
              }
              JOINT rIndex1
              {
                OFFSET -7.75947 0.938293 5.60832
                CHANNELS 3 Zrotation Xrotation Yrotation
                JOINT rIndex2
                {
                  OFFSET -2.54057 -0.884171 1.56538
                  CHANNELS 3 Zrotation Xrotation Yrotation
                  End Site
                  {
                    OFFSET -1.62519 -0.234802 1.16502
                  }
                }
              }
              JOINT rMid1
              {
                OFFSET -8.24714 1.18213 3.41376
                CHANNELS 3 Zrotation Xrotation Yrotation
                JOINT rMid2
                {
                  OFFSET -3.10165 -0.590103 1.0647
                  CHANNELS 3 Zrotation Xrotation Yrotation
                  End Site
                  {
                    OFFSET -2.48547 -0.328903 0.83742
                  }
                }
              }
              JOINT rRing1
              {
                OFFSET -8.82822 0.546677 1.51678
                CHANNELS 3 Zrotation Xrotation Yrotation
                JOINT rRing2
                {
                  OFFSET -2.60934 -0.819778 -0.0198488
                  CHANNELS 3 Zrotation Xrotation Yrotation
                  End Site
                  {
                    OFFSET -2.33842 -0.294052 0.168128
                  }
                }
              }
              JOINT rPinky1
              {
                OFFSET -8.27202 -0.0477905 -0.4584
                CHANNELS 3 Zrotation Xrotation Yrotation
                JOINT rPinky2
                {
                  OFFSET -1.82734 -0.647385 -0.700984
                  CHANNELS 3 Zrotation Xrotation Yrotation
                  End Site
                  {
                    OFFSET -1.69225 -0.51767 -0.607171
                  }
                }
              }
            }
          }
        }
      }
      JOINT lCollar
      {
        OFFSET 2.68224 19.2634 -4.8768
        CHANNELS 3 Zrotation Xrotation Yrotation
        JOINT lShldr
        {
          OFFSET 8.77824 -1.95073 1.46304
          CHANNELS 3 Zrotation Xrotation Yrotation
          JOINT lForeArm
          {
            OFFSET 28.1742 -1.7115 0.48768
            CHANNELS 3 Zrotation Xrotation Yrotation
            JOINT lHand
            {
              OFFSET 22.5879 0.773209 7.07136
              CHANNELS 3 Zrotation Xrotation Yrotation
              JOINT lThumb1
              {
                OFFSET 1.2192 -0.487915 3.41376
                CHANNELS 3 Zrotation Xrotation Yrotation
                JOINT lThumb2
                {
                  OFFSET 3.37035 -0.52449 3.41376
                  CHANNELS 3 Zrotation Xrotation Yrotation
                  End Site
                  {
                    OFFSET 1.78271 -1.18214 1.43049
                  }
                }
              }
              JOINT lIndex1
              {
                OFFSET 7.75947 0.938293 5.60832
                CHANNELS 3 Zrotation Xrotation Yrotation
                JOINT lIndex2
                {
                  OFFSET 2.54057 -0.884171 1.56538
                  CHANNELS 3 Zrotation Xrotation Yrotation
                  End Site
                  {
                    OFFSET 1.62519 -0.234802 1.16502
                  }
                }
              }
              JOINT lMid1
              {
                OFFSET 8.24714 1.18213 3.41376
                CHANNELS 3 Zrotation Xrotation Yrotation
                JOINT lMid2
                {
                  OFFSET 3.10165 -0.590103 1.0647
                  CHANNELS 3 Zrotation Xrotation Yrotation
                  End Site
                  {
                    OFFSET 2.48547 -0.328903 0.83742
                  }
                }
              }
              JOINT lRing1
              {
                OFFSET 8.82822 0.546677 1.51678
                CHANNELS 3 Zrotation Xrotation Yrotation
                JOINT lRing2
                {
                  OFFSET 2.60934 -0.819778 -0.0198488
                  CHANNELS 3 Zrotation Xrotation Yrotation
                  End Site
                  {
                    OFFSET 2.33842 -0.294052 0.168128
                  }
                }
              }
              JOINT lPinky1
              {
                OFFSET 8.27202 -0.0477905 -0.4584
                CHANNELS 3 Zrotation Xrotation Yrotation
                JOINT lPinky2
                {
                  OFFSET 1.82734 -0.647385 -0.700984
                  CHANNELS 3 Zrotation Xrotation Yrotation
                  End Site
                  {
                    OFFSET 1.69225 -0.51767 -0.607171
                  }
                }
              }
            }
          }
        }
      }
    }
  }
  JOINT rButtock
  {
    OFFSET -8.77824 4.35084 1.2192
    CHANNELS 3 Zrotation Xrotation Yrotation
    JOINT rThigh
    {
      OFFSET 0 -1.70687 -2.19456
      CHANNELS 3 Zrotation Xrotation Yrotation
      JOINT rShin
      {
        OFFSET 0 -36.8199 0.73152
        CHANNELS 3 Zrotation Xrotation Yrotation
        JOINT rFoot
        {
          OFFSET 0.73152 -45.1104 -5.12064
          CHANNELS 3 Zrotation Xrotation Yrotation
          End Site
          {
            OFFSET -1.1221 -3.69964 12.103
          }
        }
      }
    }
  }
  JOINT lButtock
  {
    OFFSET 8.77824 4.35084 1.2192
    CHANNELS 3 Zrotation Xrotation Yrotation
    JOINT lThigh
    {
      OFFSET 0 -1.70687 -2.19456
      CHANNELS 3 Zrotation Xrotation Yrotation
      JOINT lShin
      {
        OFFSET 0 -36.8199 0.73152
        CHANNELS 3 Zrotation Xrotation Yrotation
        JOINT lFoot
        {
          OFFSET -0.73152 -45.1104 -5.12064
          CHANNELS 3 Zrotation Xrotation Yrotation
          End Site
          {
            OFFSET 1.1221 -3.69964 12.103
          }
        }
      }
    }
  }
}
MOTION
Frames:	4
Frame Time:	0.03333
0.014515221118927002 -2.5377072393894196 0.4167570732533932 -8.895686149597168 -32.15599060058594 17.251638412475586 6.900997161865234 7.603134632110596 4.850724220275879 2.3129308223724365 -7.600827217102051 1.4165689945220947 -0.5683857202529907 13.599325180053711 6.4952616691589355 4.834066390991211 -28.341712951660156 13.512277603149414 -0.39283034205436707 0.05117269977927208 0.10257712006568909 0.035784073173999786 -0.09040122479200363 -0.09891068190336227 0.18397726118564606 -0.09125883132219315 -0.24448740482330322 80.98006439208984 45.45941162109375 -28.420196533203125 -28.428621292114258 -37.228614807128906 79.1651611328125 -1.981574535369873 -40.729881286621094 -6.605197906494141 0.1100383922457695 0.27899566292762756 -0.06775977462530136 0.021985027939081192 -0.1194634810090065 0.1476217806339264 -0.09371984004974365 0.19142462313175201 -0.1617262214422226 7.80175256729126 5.901138782501221 0.017402103170752525 0.22727595269680023 0.22206565737724304 0.20156818628311157 2.7822930812835693 0.9720629453659058 -0.057095907628536224 -0.5390641093254089 0.14358648657798767 0.10222608596086502 10.2056303024292 0.8176174163818359 0.22707349061965942 0.2286902219057083 0.04257873445749283 -0.11352521926164627 2.633573293685913 -0.8813333511352539 -0.39813393354415894 -0.03715559095144272 0.3829088807106018 0.09453219920396805 -47.83756637573242 20.677188873291016 -33.21538543701172 15.404060363769531 -8.906058311462402 -29.115854263305664 0.42615488171577454 24.648094177246094 -3.7535464763641357 -0.2549554705619812 -0.5679759383201599 0.13989609479904175 -0.10717224329710007 -0.25645145773887634 0.3120144009590149 -0.27364620566368103 0.46182093024253845 -0.09994741529226303 -8.068314552307129 5.065865993499756 -0.30006301403045654 0.34111878275871277 0.3499557375907898 0.12505179643630981 -2.8259646892547607 0.8492916822433472 0.23814181983470917 -0.27184292674064636 -0.2077992856502533 -0.1623641401529312 -10.324467658996582 0.37738320231437683 -0.17216992378234863 0.02648521587252617 -0.11773681640625 0.020214242860674858 -2.1988866329193115 -0.9053092002868652 -0.0935865044593811 0.07131198048591614 0.007075474597513676 -0.2740398645401001 -14.943585395812988 3.4325921535491943 1.048025369644165 -0.6370313763618469 47.876808166503906 2.722399950027466 -5.933603763580322 -14.103428840637207 -27.191877365112305 -0.07062383741140366 0.08148087561130524 -0.07703004777431488 75.02230834960938 -56.996315002441406 62.12821578979492 0.9755436778068542 65.92776489257812 -0.36361172795295715 -0.8595495223999023 5.435754299163818 3.0274200439453125
0.0369340181350708 -2.579333446919918 0.44601140543818474 -8.75302791595459 -31.164518356323242 17.423025131225586 6.911928176879883 7.738657474517822 4.698184490203857 2.010218381881714 -7.448307037353516 1.559684157371521 -0.666528046131134 13.331631660461426 6.025311470031738 4.853973388671875 -28.18935775756836 12.664061546325684 -0.49798667430877686 0.14684201776981354 -0.07199907302856445 0.26333117485046387 -0.03641519322991371 -0.23794792592525482 0.14932088553905487 -0.1337391436100006 -0.30163222551345825 80.64569091796875 46.042335510253906 -27.474794387817383 -28.416427612304688 -36.9715576171875 78.69866180419922 -1.9863332509994507 -41.009674072265625 -6.649205207824707 0.04813084751367569 0.3095775544643402 0.0005919887335039675 0.09040302783250809 -0.13512690365314484 0.24843040108680725 -0.08138664066791534 0.17283248901367188 -0.07340851426124573 7.950698375701904 6.082408428192139 0.11271853744983673 0.2566033899784088 0.34613850712776184 0.16444242000579834 2.9333090782165527 1.0042989253997803 -0.19950440526008606 -0.47564101219177246 0.3334091901779175 0.145437553524971 10.105697631835938 0.7736979126930237 0.24924711883068085 0.1753058284521103 0.033859457820653915 -0.07200015336275101 2.783181667327881 -0.7727459073066711 -0.40691056847572327 -0.15090970695018768 0.4719986915588379 0.04909452423453331 -47.2109260559082 20.360551834106445 -35.02226257324219 15.93807315826416 -9.17191219329834 -30.07809829711914 0.41240888833999634 24.477663040161133 -3.8576266765594482 -0.2815665602684021 -0.6158992052078247 0.248164102435112 -0.040683563798666 -0.2928285300731659 0.31591078639030457 -0.19376710057258606 0.3530751168727875 -0.09626778960227966 -7.960444927215576 5.159059047698975 -0.23806142807006836 0.15244679152965546 0.2999834716320038 0.22631259262561798 -2.7533891201019287 0.7961151003837585 0.19145718216896057 -0.30348360538482666 -0.10653813928365707 -0.07459990680217743 -10.23208236694336 0.25539344549179077 -0.14978241920471191 -0.009704259224236012 -0.2704032361507416 -0.08481527119874954 -2.1029744148254395 -0.9115695953369141 -0.024080246686935425 0.18644669651985168 -0.08095818012952805 -0.2765236496925354 -14.17609691619873 2.5331807136535645 0.43062564730644226 -0.6418931484222412 48.23776626586914 2.619893789291382 -6.371527194976807 -14.126653671264648 -27.37250328063965 -0.055074311792850494 0.2116069346666336 -0.12499769777059555 73.60558319091797 -57.3144416809082 61.3516845703125 1.1359858512878418 65.82318878173828 -0.3920004963874817 -0.7329540848731995 4.718735218048096 2.2648892402648926
0.05285143852233887 -2.60204691439867 0.47724638134241104 -7.2390899658203125 -31.33564567565918 15.110939025878906 5.441732883453369 10.192729949951172 4.663536548614502 2.15374493598938 -7.454979419708252 1.5371417999267578 -0.7136346101760864 13.372759819030762 6.284639835357666 4.436920642852783 -29.300683975219727 13.504537582397461 -0.31680646538734436 0.053440578281879425 -0.04064116254448891 0.08814062178134918 -0.35908642411231995 -0.18306997418403625 0.26649221777915955 -0.01012308057397604 -0.3172098398208618 73.3322982788086 43.28291702270508 -20.17471694946289 -28.441917419433594 -32.714778900146484 71.54190063476562 -1.2287572622299194 -32.524139404296875 -4.936105251312256 -0.027711328119039536 0.16623710095882416 -0.15932519733905792 -0.011554710566997528 -0.1972043365240097 0.28194934129714966 -0.1392531394958496 -0.05499204248189926 -0.06815420091152191 7.834897518157959 6.062780380249023 -0.2474929839372635 0.28107088804244995 0.18995557725429535 0.11345604062080383 2.9609057903289795 1.135758876800537 -0.1630740761756897 -0.4350292980670929 0.10833686590194702 -0.0007791040698066354 10.033831596374512 1.0234185457229614 0.0718286782503128 0.14400431513786316 0.016187258064746857 -0.1928216814994812 2.7874252796173096 -0.8426969647407532 -0.4199938476085663 -0.08366383612155914 0.30035799741744995 0.18346434831619263 -47.59852600097656 22.371118545532227 -33.13679885864258 17.640350341796875 -10.592070579528809 -33.388614654541016 0.035482220351696014 18.320192337036133 -2.7513999938964844 -0.14284703135490417 -0.6305009722709656 0.0028406509663909674 -0.13795119524002075 -0.1267377883195877 0.4576069712638855 -0.1824893206357956 0.35703879594802856 -0.19373445212841034 -8.024873733520508 5.140927314758301 -0.3607102930545807 0.049316298216581345 0.4126969277858734 0.18598484992980957 -2.8921401500701904 0.7720984220504761 0.2392270416021347 -0.3359944224357605 -0.09896761178970337 -0.11182721704244614 -10.312039375305176 0.41950032114982605 -0.20054267346858978 0.18467722833156586 -0.09361329674720764 -0.19003863632678986 -1.7643096446990967 -1.0370453596115112 -0.018527032807469368 0.25960326194763184 -0.11856858432292938 -0.2252107411623001 -15.190961837768555 -0.36489588022232056 2.6215810775756836 -0.6686890721321106 51.43516159057617 2.659414291381836 -5.70709753036499 -14.228781700134277 -25.462310791015625 -0.1362970918416977 0.1706319898366928 -0.10712725669145584 70.44051361083984 -58.26130676269531 57.947444915771484 1.191597580909729 65.91722106933594 -0.4376348853111267 -1.2227767705917358 6.065891265869141 2.531343460083008
0.05833879113197327 -2.6005933061242104 0.5209339782595634 -6.088715553283691 -31.512502670288086 13.587533950805664 4.327353000640869 12.284680366516113 4.494710922241211 2.269592046737671 -7.476985454559326 1.4129825830459595 -0.7726244330406189 13.787671089172363 6.6013007164001465 4.575730800628662 -30.847517013549805 14.317590713500977 -0.28551986813545227 0.040759578347206116 0.051658518612384796 0.060781802982091904 -0.4175252914428711 -0.16817013919353485 0.3471260964870453 0.06425214558839798 -0.1373046338558197 68.91075897216797 41.944976806640625 -17.375829696655273 -28.272769927978516 -31.11270523071289 68.9907455444336 -1.1559171676635742 -27.953006744384766 -4.158292293548584 -0.0539492666721344 0.19381605088710785 -0.22436070442199707 0.01217175368219614 -0.1103256568312645 0.31989017128944397 -0.1337490975856781 -0.07872633635997772 -0.26085370779037476 7.779836177825928 6.112924575805664 -0.1697491854429245 0.22582882642745972 0.073244109749794 0.21370872855186462 2.8923513889312744 1.1482237577438354 0.04528059810400009 -0.34308063983917236 -0.03361806273460388 -0.05800653249025345 10.184609413146973 1.1356995105743408 0.17325563728809357 0.16740000247955322 -0.0735669732093811 -0.23947684466838837 2.671049118041992 -0.90602707862854 -0.42792075872421265 0.09706688672304153 0.06907987594604492 0.19543278217315674 -48.02465057373047 23.052032470703125 -32.45222854614258 18.743547439575195 -11.689092636108398 -35.37999725341797 -0.039538607001304626 16.078222274780273 -2.3397786617279053 -0.1792559027671814 -0.7022219300270081 -0.09488873928785324 -0.032030533999204636 -0.031555574387311935 0.32896602153778076 -0.19923265278339386 0.25285032391548157 -0.32025662064552307 -8.158475875854492 5.118020534515381 -0.5367713570594788 0.06659930944442749 0.4375830590724945 0.17611998319625854 -3.056070566177368 0.7616246938705444 0.44639819860458374 -0.40262094140052795 -0.16559042036533356 -0.18964459002017975 -10.477824211120605 0.4283907413482666 -0.22270363569259644 0.20240719616413116 0.002963046543300152 -0.1143370270729065 -1.6553822755813599 -0.978209376335144 0.03177502378821373 0.20793914794921875 -0.020233165472745895 -0.1809385120868683 -15.41446590423584 -2.8088486194610596 4.981897830963135 -0.7939928770065308 54.373294830322266 2.778693675994873 -5.552783966064453 -15.113865852355957 -24.70155143737793 -0.11987435072660446 0.23286907374858856 0.11683826148509979 70.45340728759766 -59.458248138427734 57.365753173828125 1.3213984966278076 65.49453735351562 -0.9046105742454529 -1.945233941078186 8.2926607131958 2.8593924045562744
